<svg width="200" height="200" viewBox="0 0 200 200" xmlns="http://www.w3.org/2000/svg">
  <defs>
    <linearGradient id="gradSports" x1="0%" y1="0%" x2="100%" y2="100%">
      <stop offset="0%" style="stop-color:#ff9a9e;stop-opacity:1" />
      <stop offset="100%" style="stop-color:#fecfef;stop-opacity:1" />
    </linearGradient>
    <filter id="shadow">
      <feDropShadow dx="4" dy="8" stdDeviation="4" flood-opacity="0.3"/>
    </filter>
  </defs>
  <circle cx="100" cy="100" r="70" fill="#fff" filter="url(#shadow)" />
  <path d="M100 30 A70 70 0 0 1 100 170 A70 70 0 0 1 100 30" fill="none" />
  <path d="M70 55 L90 80 L130 80 L150 55 L110 30 Z" fill="#333" />
  <path d="M40 90 L70 110 L60 150 L30 130 Z" fill="#333" />
  <path d="M160 90 L130 110 L140 150 L170 130 Z" fill="#333" />
  <path d="M90 140 L110 140 L100 170 Z" fill="#333" />
  <circle cx="100" cy="100" r="68" stroke="#333" stroke-width="2" fill="none" />
</svg>
